<?xml version="1.0" encoding="UTF-8"?>
<!DOCTYPE svg PUBLIC "-//W3C//DTD SVG 1.1//EN" "http://www.w3.org/Graphics/SVG/1.1/DTD/svg11.dtd">
<!-- Creator: CorelDRAW (Versão OEM) -->
<svg xmlns="http://www.w3.org/2000/svg" xml:space="preserve" width="50.566mm" height="50.3374mm" version="1.1" style="shape-rendering:geometricPrecision; text-rendering:geometricPrecision; image-rendering:optimizeQuality; fill-rule:evenodd; clip-rule:evenodd"
viewBox="0 0 2166.78 2156.99"
 xmlns:xlink="http://www.w3.org/1999/xlink"
 xmlns:xodm="http://www.corel.com/coreldraw/odm/2003">
 <defs>
  <style type="text/css">
   <![CDATA[
    .fil0 {fill:#FEFEFE}
    .fil2 {fill:white}
    .fil1 {fill:black;fill-rule:nonzero}
    .fil3 {fill:white;fill-rule:nonzero}
   ]]>
  </style>
 </defs>
 <g id="Capa_x0020_1">
  <metadata id="CorelCorpID_0Corel-Layer"/>
  <g id="_2392631759328">
   <g>
    <path class="fil0" d="M1809.58 1438.1l3.71 1.24 7.19 2.61 6.2 2.45 7.26 3.09 5 2.27 4.73 2.27 5.79 2.93 9.12 4.97 5.55 3.26 6.6 4.1 6.54 4.35 6.45 4.54 6.29 4.71 4.2 3.31 3.11 2.54 4.99 4.22 5.1 4.54 1.54 1.41c0.23,0.21 0.42,0.39 0.65,0.61l4.51 4.31c52.23,50.7 81.65,119.68 82.56,192.4 0.9,72.71 -26.7,142.59 -77.79,194.47l-2.32 2.36 -2.55 2.52 -5.05 4.79 -2.58 2.36 -2.62 2.35 -2.67 2.31 -5.25 4.39 -2.68 2.16 -2.69 2.12 -2.79 2.13 -2.77 2.06 -5.48 3.93 -2.88 1.98 -2.84 1.89 -2.83 1.85 -2.85 1.8 -2.91 1.8 -2.92 1.74 -5.83 3.35 -2.97 1.63 -2.97 1.58 -5.97 3.05 -6.06 2.9 -5.99 2.69 -3.15 1.35 -6.18 2.5 -6.17 2.33 -3.18 1.14 -3.11 1.06 -3.13 1.04 -3.2 1.01 -6.29 1.86 -3.28 0.9 -6.27 1.62 -6.46 1.5 -3.27 0.69 -6.38 1.24 -3.29 0.57 -3.24 0.53 -3.24 0.49 -3.24 0.45 -3.24 0.42 -3.26 0.37 -3.32 0.34 -6.45 0.54 -3.33 0.22 -6.53 0.32 -3.31 0.1 -3.07 0.05c-72.79,1.28 -142.47,-26.87 -194.52,-77.65 -20.12,-19.63 -37.16,-42.15 -50.38,-66.96l-2.47 -4.72 -2.92 -5.93 -2.25 -4.81 -3.16 -7.21 -2.96 -7.35 -2.52 -6.83 -357.37 357.13c-13.71,13.69 -36.06,13.69 -49.77,-0.01l-323.57 -323.53 -72.85 -73.06 -47.89 -48.22 -41.58 -42.03 -37.96 -38.58 -37.01 -37.82 -59.58 -61.21 -167.14 -172.16 -150.41 -154.6 -110.55 -113.4c-13.54,-13.88 -13.26,-36.23 0.62,-49.78l374.42 -365.17c9.49,-9.25 22.36,-12.35 35.02,-8.41 12.66,3.93 21.51,13.78 24.08,26.78 3.6,18.16 9.43,35.84 17.36,52.55 10.61,22.37 24.89,42.76 42.18,60.48 41.67,42.73 98.14,67.54 157.95,67.86l5.62 0 5.49 -0.13 2.6 -0.1 5.47 -0.33 2.6 -0.2 5.48 -0.52 2.64 -0.3 5.41 -0.72 2.61 -0.39 5.43 -0.91 2.58 -0.48 5.36 -1.11 2.56 -0.57 5.33 -1.31 5.28 -1.42 2.58 -0.75 5.22 -1.62 5.17 -1.73 2.53 -0.9 5.17 -1.95 5.05 -2.04 2.52 -1.08 2.51 -1.11 5.01 -2.31 4.97 -2.46 2.41 -1.25 4.96 -2.68 2.36 -1.33 4.79 -2.84 4.76 -2.97 2.3 -1.5 4.75 -3.23 2.26 -1.59 4.56 -3.36 2.26 -1.73 2.21 -1.73 4.44 -3.63 2.19 -1.86 2.17 -1.89 2.16 -1.93 2.15 -1.96 2.1 -1.96 4.2 -4.09 4.01 -4.13 3.97 -4.28 1.89 -2.12 1.88 -2.16 3.67 -4.38 1.74 -2.18 3.5 -4.5 1.65 -2.22 3.29 -4.59 3.15 -4.66 1.53 -2.35 1.46 -2.31 2.92 -4.79 2.73 -4.76 2.65 -4.91 1.27 -2.45 1.22 -2.43 1.2 -2.46 2.32 -5 1.1 -2.48 2.12 -5.05 2 -5.12 1.87 -5.12 1.73 -5.14 1.61 -5.21 1.47 -5.21 0.69 -2.62 1.3 -5.3 1.14 -5.27 0.54 -2.67 0.48 -2.61 0.91 -5.37 0.78 -5.38 0.33 -2.64 0.59 -5.4 0.24 -2.68 0.21 -2.65 0.33 -5.42 0.19 -5.44 0.06 -2.88c1.12,-59.81 -22.21,-116.86 -63.9,-159.62 -17.29,-17.74 -37.32,-32.48 -59.43,-43.66 -16.51,-8.35 -34.04,-14.61 -52.11,-18.67 -12.93,-2.91 -22.54,-12 -26.16,-24.76 -3.61,-12.75 -0.19,-25.53 9.29,-34.79l361.55 -352.63c13.66,-13.32 35.49,-13.32 49.15,0l361.56 352.63c9.49,9.25 12.91,22.04 9.29,34.79 -3.61,12.76 -13.22,21.85 -26.15,24.76 -18.05,4.05 -35.57,10.28 -52.07,18.65l-5.02 2.61 -6.98 3.92 -6.83 4.16 -4.7 3.07 -4.83 3.32 -5.62 4.11 -5.52 4.32 -5.27 4.37 -4.4 3.87 -3.45 3.18 -6.05 5.91 -2.82 2.93 -1.99 2.12 -1.94 2.13 -3.84 4.35 -1.84 2.16 -3.65 4.47 -3.51 4.53 -1.62 2.19 -3.32 4.63 -3.15 4.67 -1.52 2.33 -2.97 4.76 -2.83 4.79 -2.69 4.83 -2.61 4.96 -1.21 2.4 -2.38 4.99 -1.12 2.47 -2.22 5.1 -1.03 2.5 -2.01 5.12 -0.94 2.52 -0.91 2.57 -0.88 2.58 -1.7 5.24 -1.54 5.18 -0.71 2.6 -1.36 5.3 -1.22 5.27 -1.1 5.36 -0.48 2.55 -0.92 5.48 -0.39 2.62 -0.37 2.65 -0.64 5.39 -0.27 2.68 -0.44 5.34 -0.33 5.47 -0.18 5.39 -0.05 2.65 0 5.48 0.05 2.6 0.19 5.44 0.33 5.38 0.46 5.42 0.27 2.63 0.66 5.41 0.77 5.28 0.92 5.42 0.48 2.61 1.11 5.35 0.58 2.58 1.29 5.3 1.43 5.27 0.72 2.52 1.63 5.26 1.74 5.18 1.86 5.08 0.99 2.57 1 2.51 2.14 5.09 1.1 2.48 2.32 5 1.2 2.46 1.22 2.43 2.58 4.92 2.7 4.83 1.35 2.34 2.93 4.82 3 4.66 3.18 4.69 1.58 2.25 3.34 4.54 3.49 4.5 1.75 2.18 3.67 4.38 3.81 4.33 1.9 2.08 4.04 4.25 2.01 2.04 4.19 4.09 4.27 3.94 2.16 1.93 2.15 1.87 2.19 1.86 4.44 3.63 2.21 1.73 2.27 1.73 4.56 3.36 4.66 3.24 4.65 3.09 2.34 1.48 4.83 2.94 2.32 1.35 4.87 2.7 2.48 1.32 2.42 1.26 4.98 2.46 4.98 2.3 2.52 1.12 5.06 2.13 2.5 0.99 5.17 1.95 2.53 0.9 5.16 1.73 5.23 1.62 2.58 0.75 5.27 1.41 5.33 1.3 2.56 0.58 5.38 1.11 2.58 0.48 5.42 0.91 5.36 0.76 2.67 0.34 2.64 0.3 5.47 0.52 2.59 0.2 5.48 0.33 2.6 0.1 5.48 0.13 5.35 0 5.48 -0.14 2.64 -0.11 5.43 -0.33 2.64 -0.21 5.41 -0.53 2.68 -0.3 2.64 -0.33 5.37 -0.78 5.37 -0.92 2.69 -0.49 2.62 -0.53 2.55 -0.54 5.4 -1.26 2.58 -0.65 5.22 -1.41 5.21 -1.55 5.21 -1.69 2.57 -0.88 5.12 -1.86 2.55 -0.98 5.06 -2.06 2.46 -1.05 5.05 -2.27 2.48 -1.17 2.46 -1.19 4.91 -2.51 2.43 -1.29 4.85 -2.69 4.83 -2.86 4.66 -2.91 4.7 -3.11 2.32 -1.59 4.54 -3.25 2.27 -1.69 4.47 -3.46 4.43 -3.6 4.31 -3.7 4.32 -3.9 2.09 -1.95 2.09 -2.01 2.06 -2.03 4.43 -4.55 4.07 -4.42 3.93 -4.49 3.77 -4.55 2.87 -3.63 2.11 -2.76 4.11 -5.67 3.94 -5.82 3.03 -4.73 2.37 -3.89 2.88 -4.99 3.24 -6.03 3.48 -6.98 3.67 -8.15 3.21 -7.94 2.65 -7.34 2.67 -8.3 2.07 -7.36 1.67 -6.74 1.5 -7.02c2.66,-12.95 11.52,-22.7 24.15,-26.58 12.64,-3.88 25.44,-0.77 34.91,8.45l374.42 365.17c13.88,13.55 14.16,35.9 0.63,49.78l-347.22 355.99z"/>
    <path class="fil1" d="M1083.39 35.19l0.01 0 361.55 352.63c-20.72,4.65 -40.99,11.85 -60.27,21.6l-1.17 0.6 -1.17 0.6 -1.15 0.61 -1.17 0.61 -1.16 0.62 -1.14 0.63 -1.15 0.63 -1.14 0.63 -1.16 0.64 -1.14 0.66 -1.14 0.65 -1.14 0.66 -1.13 0.67 -1.14 0.68 -1.14 0.68 -1.12 0.69 -1.13 0.69 -1.12 0.69 -1.12 0.7 -0.01 0 -1.1 0.71 -0.01 0 -1.11 0.73 -1.11 0.72 -1.11 0.73 -1.09 0.73 -0.01 0 -1.11 0.75 -1.09 0.74 -1.1 0.76 -0.01 0 -1.08 0.76 -1.09 0.76 -1.08 0.78 -0.01 0 -1.08 0.78 -1.08 0.79 -0 0 -1.07 0.78 -1.07 0.81 -1.08 0.8 -1.06 0.81 -1.06 0.81 -1.07 0.83 -1.05 0.84 -1.05 0.83 -0.01 0 -1.05 0.84 -1.05 0.84 -1.04 0.85 -0.01 0 -1.05 0.86 -1.02 0.87 -0.01 0 -1.03 0.87 -1.03 0.88 -1.03 0.9 -0.01 0 -1.01 0.89 -0.01 0 -1.01 0.9 -1.01 0.9 -0.01 0 -1 0.91 -1 0.92 -0.01 0 -1 0.92 -0.01 0 -0.99 0.93 -1 0.94 -0.99 0.94 -0.01 0 -0.99 0.95 -0.98 0.95 -0.01 0 -0.98 0.96 -0.97 0.96 -0 0 -0.97 0.97 -0.98 0.98 -0.96 0.99 -2.34 2.43 -2.29 2.44 -2.26 2.46 -2.22 2.49 -2.18 2.51 -2.15 2.53 -2.1 2.55 -0.01 0 -2.07 2.56 -2.03 2.59 -0 0 -2 2.61 -1.95 2.62 -1.92 2.66 -0.01 0 -1.88 2.66 -1.84 2.69 -1.8 2.69 -0.01 0 -1.77 2.73 -0.01 0 -1.72 2.73 -0 0 -1.69 2.75 -1.67 2.77 -1.62 2.78 -1.58 2.8 -0.01 0 -1.54 2.82 -0.01 0 -1.5 2.82 -0.01 0 -1.47 2.84 -1.44 2.86 -1.38 2.87 -0.01 0 -1.35 2.88 -1.32 2.9 -1.28 2.91 -0.01 0 -1.25 2.92 -1.21 2.94 -1.17 2.94 -0 0 -1.13 2.95 -1.09 2.96 -0.01 0 -1.05 2.99 -1.02 2.98 -0.01 0 -0.98 3 -0.01 0 -0.95 3 -0.91 3.01 -0.88 3.03 -0.84 3.03 -0.01 0 -0.78 3.03 -0.01 0 -0.76 3.04 -0.01 0 -0.71 3.05 -0.01 0 -0.69 3.07 -0.64 3.07 -0.01 0 -0.61 3.07 -0.58 3.08 -0.53 3.09 -0.02 0 -0.49 3.08 -0.47 3.1 -0.42 3.1 -0.39 3.09 -0.01 0 -0.34 3.1 -0.01 0 -0.31 3.11 -0.28 3.12 -0 0 -0.24 3.11 -0.01 0 -0.18 3.11 -0.01 0 -0.17 3.12 -0.01 0 -0.12 3.12 -0.09 3.13 -0.01 0 -0.05 3.12 -0.01 3.12 0.01 3.12 0.01 0 0.05 3.12 0.01 0 0.09 3.13 0.01 0 0.12 3.12 0.01 0 0.17 3.11 0.01 0 0.19 3.11 0.01 0 0.24 3.12 0.28 3.11 0.01 0 0.31 3.11 0.01 0 0.35 3.09 0.38 3.1 0.01 0 0.43 3.1 0.01 0 0.46 3.08 0.51 3.09 0.54 3.09 0.58 3.07 0.62 3.08 0.65 3.07 0.69 3.05 0.74 3.05 0.75 3.04 0.01 0 0.8 3.03 0.83 3.03 0.01 0 0.87 3.02 0.01 0 0.91 3.01 0.94 3 0.99 2.98 1.02 2.99 1.06 2.97 1.1 2.95 0.01 0 1.13 2.96 1.17 2.94 1.21 2.92 1.25 2.92 1.28 2.9 1.32 2.88 1.35 2.88 1.4 2.88 0.01 0 1.42 2.84 1.47 2.84 1.5 2.82 1.55 2.81 1.58 2.79 1.61 2.78 1.66 2.75 1.68 2.75 1.73 2.72 1.77 2.72 1.8 2.68 1.83 2.67 1.87 2.66 1.92 2.63 1.95 2.63 1.99 2.59 2.02 2.58 2.06 2.56 2.1 2.53 2.13 2.52 2.17 2.5 2.2 2.47 2.24 2.45 2.29 2.43 2.32 2.41 2.35 2.39 2.4 2.36 2.41 2.34 2.45 2.29 2.46 2.25 2.49 2.22 2.51 2.18 0.01 0 2.52 2.15 2.55 2.1 2.57 2.07 0.01 0 2.58 2.03 2.61 1.99 2.63 1.96 2.65 1.93 0.01 0 2.66 1.87 2.67 1.85 0.01 0 2.7 1.82 2.72 1.77 2.73 1.73 0.01 0 2.75 1.7 2.76 1.66 0.01 0 2.77 1.62 0.01 0 2.8 1.58 2.81 1.54 0.01 0 2.82 1.51 2.85 1.47 0.01 0 2.85 1.43 2.87 1.41 0.01 0 2.88 1.35 0.01 0 2.89 1.32 2.91 1.29 2.91 1.25 0.01 0 2.93 1.21 2.95 1.18 0.01 0 2.95 1.13 2.96 1.11 2.98 1.06 2.98 1.02 3 0.99 3.01 0.94 0.01 0 3.01 0.91 3.03 0.88 3.03 0.83 3.04 0.8 3.05 0.76 3.05 0.74 3.06 0.69 3.06 0.64 3.08 0.62 3.09 0.57 3.08 0.53 3.09 0.51 3.09 0.46 3.1 0.43 3.09 0.39 3.11 0.35 3.11 0.31 3.12 0.28 3.1 0.24 3.12 0.19 3.12 0.18 3.12 0.13 3.13 0.08 3.11 0.06 3.13 0.02 3.12 -0.02 3.12 -0.07 3.12 -0.09 3.11 -0.13 3.12 -0.17 3.12 -0.2 3.11 -0.24 3.11 -0.28 3.1 -0.32 3.1 -0.35 3.1 -0.39 3.1 -0.43 3.09 -0.46 3.08 -0.51 3.09 -0.54 3.07 -0.57 3.07 -0.61 3.07 -0.66 3.05 -0.7 3.05 -0.72 3.04 -0.76 3.03 -0.8 3.03 -0.84 3.02 -0.88 3.01 -0.91 3 -0.95 2.99 -0.99 2.99 -1.02 2.97 -1.06 2.96 -1.09 2.96 -1.14 2.94 -1.17 2.93 -1.2 2.91 -1.24 2.9 -1.29 2.89 -1.32 2.88 -1.35 2.87 -1.4 2.85 -1.43 0.01 0 2.83 -1.47 2.82 -1.5 2.81 -1.55 2.79 -1.57 2.77 -1.62 0.01 0 2.76 -1.65 2.74 -1.69 2.73 -1.72 2.71 -1.77 0.01 0 2.68 -1.81 2.68 -1.83 0.01 0 2.64 -1.87 0.01 0 2.63 -1.92 2.63 -1.95 2.59 -1.98 0.01 0 2.57 -2.02 2.56 -2.07 2.54 -2.09 2.52 -2.14 0.01 0 2.49 -2.16 2.46 -2.22 0.01 0 2.45 -2.24 0.01 0 2.42 -2.28 0.01 0 2.4 -2.31 0.01 0 2.38 -2.36 0.01 0 2.35 -2.39 0.01 0 0.95 -0.99 0.01 0 0.95 -0.99 0.01 0 0.93 -0.99 0.01 0 0.93 -1.02 0.01 0 0.93 -0.99 0.01 0 0.92 -1.01 0.01 0 0.92 -1.01 0.91 -1.01 0.01 0 0.9 -1.03 0.01 0 0.9 -1.02 0.01 0 0.89 -1.02 0.89 -1.03 0.89 -1.03 0.88 -1.04 0.86 -1.05 0.01 0 0.86 -1.04 0.01 0 0.85 -1.05 0.01 0 0.85 -1.05 0.84 -1.04 0.01 0 0.84 -1.06 0.83 -1.06 0.01 0 0.83 -1.06 0.82 -1.08 0.01 0 0.8 -1.06 0.01 0 0.81 -1.07 0.79 -1.08 0.8 -1.08 0.78 -1.08 0.79 -1.08 0.01 0 0.77 -1.09 0.78 -1.1 0.76 -1.09 0.76 -1.1 0.75 -1.11 0.75 -1.1 0.74 -1.11 0 0 0.74 -1.11 0.73 -1.11 0.72 -1.12 0.72 -1.11 0.71 -1.13 0.7 -1.12 0.69 -1.13 0.69 -1.13 0.69 -1.14 0.68 -1.13 0.67 -1.14 0.66 -1.14 0.01 0 0.65 -1.14 0.65 -1.15 0.65 -1.15 0.64 -1.15 0.63 -1.15 0.63 -1.15 0.62 -1.16 0.62 -1.17 0.61 -1.15 0.6 -1.17 0.6 -1.17 0.58 -1.17 0.58 -1.17 0.59 -1.18 0.57 -1.18 0.57 -1.18 0.43 -0.92 0.42 -0.92 0.44 -0.92 0.42 -0.92 0.41 -0.92 0.42 -0.92 0.41 -0.93 0.4 -0.93 0.4 -0.93 0.41 -0.93 0.39 -0.93 0.39 -0.93 0.39 -0.93 0.39 -0.94 0.38 -0.93 0.38 -0.94 0.37 -0.93 0.37 -0.95 0.36 -0.93 0.37 -0.94 0.35 -0.94 0.01 0 0.35 -0.95 0.34 -0.93 0.01 0 0.34 -0.94 0.33 -0.96 0.01 0 0.33 -0.94 0.33 -0.95 0.33 -0.94 0.01 0 0.33 -0.95 0.32 -0.96 0.01 0 0.31 -0.94 0.01 0 0.31 -0.96 0 0 0.31 -0.95 0.31 -0.95 0.3 -0.96 0.3 -0.95 0.01 0 0.3 -0.95 0.29 -0.96 0.29 -0.95 0.28 -0.96 0.29 -0.96 0.27 -0.96 0.01 0 0.26 -0.96 0.01 0 0.27 -0.96 0.27 -0.96 0.26 -0.96 0.01 0 0.26 -0.97 0.25 -0.96 0.01 0 0.24 -0.97 0.25 -0.96 0.24 -0.97 0.01 0 0.24 -0.98 0.01 0 0.23 -0.97 0.23 -0.97 0.24 -0.97 0.22 -0.97 0.22 -0.97 0.22 -0.98 0.22 -0.97 0.2 -0.97 0.01 0 0.21 -0.98 0.2 -0.98 0.19 -0.97 0.2 -0.98 374.42 365.17 -391.57 401.47 20.79 3.3 0.01 0 1.11 0.18 0 0 1.11 0.18 0.01 0 1.11 0.19 0.01 0 1.11 0.2 0.01 0 1.11 0.19 0.01 0 1.11 0.21 1.11 0.22 0.01 0 1.11 0.21 0 0 1.11 0.22 0.01 0 1.1 0.24 1.11 0.23 0.01 0 1.09 0.24 0.01 0 1.11 0.24 1.1 0.25 1.11 0.26 0.01 0 1.09 0.25 0.01 0 1.11 0.27 1.1 0.27 1.11 0.27 1.09 0.29 0.01 0 1.1 0.28 1.1 0.29 1.1 0.3 1.1 0.3 1.09 0.3 0.01 0 1.09 0.32 1.1 0.32 1.09 0.33 1.09 0.33 1.08 0.33 1.1 0.34 1.09 0.34 1.09 0.35 1.08 0.36 1.08 0.36 1.09 0.37 1.08 0.37 1.08 0.39 1.08 0.38 1.08 0.39 1.07 0.39 1.07 0.4 1.08 0.4 1.07 0.41 1.07 0.42 1.07 0.42 1.07 0.43 1.06 0.42 1.07 0.45 1.06 0.44 1.05 0.45 1.06 0.45 1.06 0.46 1.05 0.46 1.05 0.47 1.05 0.48 1.05 0.48 1.06 0.49 1.03 0.49 1.05 0.49 1.05 0.51 1.04 0.5 1.04 0.52 1.04 0.52 0.99 0.5 1 0.51 0.99 0.51 0.99 0.53 0.99 0.53 0.99 0.53 0.99 0.54 0.99 0.54 0.98 0.54 0.99 0.55 0.99 0.55 0.97 0.57 0.98 0.55 0.97 0.58 0.97 0.57 0.97 0.58 0.97 0.59 0.96 0.58 0.96 0.6 0.96 0.6 0.95 0.6 0.01 0 0.96 0.61 0.95 0.62 0.95 0.62 0.01 0 0.94 0.63 0.94 0.63 0.01 0 0.94 0.63 0.01 0 0.93 0.65 0.94 0.64 0.01 0 0.93 0.65 0.94 0.65 0.93 0.66 0.01 0 0.92 0.67 0.01 0 0.92 0.67 0.92 0.68 0.01 0 0.92 0.69 0.92 0.69 0.92 0.69 0.91 0.69 0.01 0 0.91 0.7 0.91 0.71 0.9 0.71 0.9 0.71 0.9 0.72 0.01 0 0.9 0.74 0.9 0.72 0.01 0 0.89 0.74 0.88 0.75 0.01 0 0.89 0.74 0.89 0.75 0.01 0 0.87 0.76 0.01 0 0.88 0.75 0.87 0.77 0.88 0.77 0.88 0.78 0.87 0.79 0.86 0.78 0.86 0.8 0.01 0 0.86 0.79 0.85 0.81 0.85 0.8 0.86 0.81 0.84 0.81 0.85 0.83c47.08,45.91 71.11,106.63 71.88,167.58 0.76,60.93 -21.72,122.24 -67.67,169.32l-2.16 2.19 -2.19 2.16 -2.21 2.11 -2.22 2.09 -2.25 2.06 -2.26 2.02 -2.3 1.99 -2.31 1.95 0 0.01 -2.32 1.91 -2.35 1.89 -2.36 1.86 -2.38 1.83 -2.4 1.78 -2.42 1.75 0 0.01 -2.43 1.71 -2.46 1.69 -2.47 1.65 -2.48 1.61 -2.49 1.58 -2.51 1.55 0 0.01 -2.53 1.5 -2.54 1.48 -2.56 1.46 -2.56 1.4 -2.58 1.38 -2.61 1.35 -2.61 1.32 -2.62 1.27 0 0.01 -2.63 1.24 0 0.01 -2.66 1.2 -2.65 1.18 -2.67 1.14 -2.7 1.1 -2.68 1.07 0 0.01 -2.71 1.03 0 0.01 -2.71 1 -2.73 0.97 -2.73 0.94 -2.73 0.9 -2.75 0.87 0 0.01 -2.75 0.82 0 0.01 -2.77 0.81 -2.77 0.76 -2.79 0.73 0 0.01 -2.78 0.7 -2.79 0.66 0 0.01 -2.8 0.63 -2.81 0.6 0 0 -2.82 0.55 -2.81 0.54 -2.82 0.49 0 0.01 -2.82 0.45 -2.84 0.43 -2.83 0.39 0 0.01 -2.83 0.35 0 0.01 -2.84 0.32 -2.85 0.29 -2.85 0.25 -2.84 0.23 -2.86 0.19 -2.85 0.15 -2.86 0.12 -2.85 0.09 -2.86 0.05c-60.94,0.78 -122.23,-21.72 -169.33,-67.65 -18.01,-17.58 -32.64,-37.28 -43.89,-58.31l-0.54 -1.02 -0.54 -1.03 -0.54 -1.04 -0.54 -1.03 -0.51 -1.03 -0.01 0 -0.52 -1.03 -0.51 -1.05 -0.5 -1.03 -0.5 -1.04 -0.01 0 -0.48 -1.05 -0.01 0 -0.48 -1.05 -0.01 0 -0.48 -1.05 -0.48 -1.05 -0.47 -1.05 -0.48 -1.05 -0.46 -1.05 -0.46 -1.05 -0.01 0 -0.44 -1.05 -0.45 -1.06 -0.01 0 -0.43 -1.06 -0.44 -1.06 -0.43 -1.06 -0.43 -1.07 -0.42 -1.06 -0.42 -1.06 -0.01 0 -0.4 -1.08 -0.01 0 -0.39 -1.07 -0.01 0 -0.39 -1.06 -0.4 -1.08 -0.39 -1.07 -0.01 0 -0.38 -1.08 -0.37 -1.08 -0.01 0 -0.38 -1.08 -0.37 -1.09 -0.36 -1.08 -0.35 -1.09 -0.01 0 -0.34 -1.08 -0.01 0 -0.34 -1.09 -0.34 -1.1 -0.33 -1.08 -0.33 -1.1 -0.01 0 -0.32 -1.08 -0.01 0 -0.32 -1.1 -0.31 -1.09 -0.01 0 -0.3 -1.1 -0.01 0 -0.3 -1.09 -0.3 -1.1 -0.29 -1.1 -0.28 -1.1 -0.01 0 -0.27 -1.11 -0.01 0 -0.28 -1.1 -0.27 -1.1 -0.01 0 -0.25 -1.1 -0.01 0 -0.26 -1.11 -0.26 -1.11 -0.25 -1.1 -0.01 0 -0.24 -1.11 -0.01 0 -0.22 -1.1 -0.01 0 -0.24 -1.11 -0.22 -1.1 -0.01 0 -0.22 -1.11 -0.01 0 -0.21 -1.11 -0.01 0 -0.21 -1.11 -0.01 0 -0.2 -1.11 -0.01 0 -3.82 -20.69 -0.01 0 -401.69 401.43 -0.01 0 -30.6 -30.58 -0.01 0 -29.26 -29.27 -0.01 0 -27.99 -27.97 -0.01 0 -26.76 -26.76 -0.01 0 -25.56 -25.56 -0.01 0 -24.42 -24.41 -23.3 -23.29 -0.01 0 -22.24 -22.24 -21.22 -21.22 -0.01 0 -20.22 -20.24 -0.01 0 -19.28 -19.3 -0 0 -18.38 -18.4 -0.01 0 -17.52 -17.55 -0 0 -16.71 -16.73 -0.01 0 -15.93 -15.98 -0.01 0 -15.2 -15.25 -0.01 0 -14.5 -14.55 -0.01 0 -13.87 -13.93 -0 0 -13.27 -13.32 -12.7 -12.77 -0.01 0 -12.17 -12.26 -0.01 0 -11.69 -11.78 -0.01 0 -11.25 -11.35 -0.01 0 -10.86 -10.97 -0.01 0 -10.51 -10.61 -0.01 0 -10.19 -10.33 -0.01 0 -9.93 -10.06 -0.01 0 -9.7 -9.85 -0.01 0 -9.51 -9.68 -0.01 0 -9.38 -9.53 -9.27 -9.45 -0.01 0 -9.21 -9.4 -0.01 0 -9.2 -9.4 -0.01 0 -9.22 -9.44 -9.29 -9.51 -9.4 -9.64 -9.55 -9.8 -9.75 -10.01 -0.01 0 -9.97 -10.27 -10.26 -10.55 -0.01 0 -10.58 -10.88 -10.93 -11.27 -11.35 -11.68 -0.01 0 -11.78 -12.15 -12.28 -12.65 -12.81 -13.2 -13.37 -13.78 -13.99 -14.42 -14.65 -15.09 -15.34 -15.81 -16.09 -16.57 -16.86 -17.35 -0.01 0 -17.68 -18.21 -18.56 -19.09 -19.46 -20.02 -20.41 -21 -21.4 -22 -22.45 -23.05 -23.52 -24.16 -24.63 -25.3 -25.8 -26.47 -27 -27.7 -28.25 -28.97 -29.53 -30.27 374.42 -365.17c4.12,20.83 10.85,41.27 20.09,60.82 12,25.2 28.25,48.9 48.78,69.95 50.15,51.43 116.43,77.65 182.95,78.48l3.12 0.02 3.12 -0.02 3.12 -0.06 3.12 -0.08 3.12 -0.13 3.12 -0.18 3.11 -0.19 3.11 -0.24 3.12 -0.28 3.11 -0.31 3.1 -0.35 3.1 -0.39 3.1 -0.43 3.09 -0.46 3.09 -0.51 3.09 -0.53 3.08 -0.57 3.08 -0.62 3.06 -0.64 3.06 -0.69 3.05 -0.74 3.05 -0.76 3.04 -0.8 3.03 -0.83 3.03 -0.88 3.01 -0.91 3 -0.94 3 -0.99 2.99 -1.02 2.98 -1.06 2.96 -1.11 0.01 0 2.95 -1.13 2.95 -1.18 2.93 -1.21 2.92 -1.25 2.91 -1.29 2.89 -1.32 2.88 -1.35 2.88 -1.41 2.86 -1.43 2.84 -1.47 2.83 -1.51 0.01 0 2.81 -1.54 2.8 -1.58 0.01 0 2.77 -1.62 0.02 0 2.76 -1.66 2.75 -1.7 0.01 0 2.73 -1.73 0.01 0 2.72 -1.77 2.69 -1.82 0.02 0 2.67 -1.85 0.01 0 2.66 -1.87 2.65 -1.93 2.63 -1.96 0.01 0 2.6 -1.99 0.01 0 2.58 -2.03 2.57 -2.07 0.01 0 2.54 -2.1 0.01 0 2.52 -2.15 0.01 0 2.5 -2.18 0.01 0 2.48 -2.22 0.01 0 2.46 -2.25 0.01 0 2.43 -2.29 0.01 0 2.42 -2.34 0.01 0 2.39 -2.36 2.35 -2.39 0.01 0 2.31 -2.41 0.01 0 2.27 -2.43 0.01 0 2.24 -2.45 0.02 0 2.19 -2.47 0.01 0 2.16 -2.5 2.13 -2.52 0.01 0 2.09 -2.53 0.01 0 2.05 -2.56 0.01 0 2.01 -2.58 1.99 -2.59 1.95 -2.63 1.9 -2.63 0.01 0 1.87 -2.66 1.83 -2.67 1.8 -2.68 0.01 0 1.76 -2.72 1.72 -2.72 1.69 -2.75 1.65 -2.75 0.01 0 1.61 -2.78 0.01 0 1.57 -2.79 0.01 0 1.53 -2.81 1.5 -2.82 1.47 -2.84 1.43 -2.84 1.39 -2.88 1.35 -2.88 1.32 -2.88 1.28 -2.9 1.25 -2.92 1.21 -2.92 1.17 -2.94 1.14 -2.96 0.01 0 1.08 -2.95 1.07 -2.97 1.02 -2.99 0.99 -2.98 0.95 -3 0.92 -3.01 0.87 -3.02 0.84 -3.03 0.8 -3.03 0.76 -3.04 0.74 -3.05 0.69 -3.05 0.65 -3.07 0.62 -3.08 0.58 -3.07 0.54 -3.09 0.51 -3.09 0.46 -3.08 0.43 -3.1 0.39 -3.1 0.35 -3.09 0.32 -3.11 0.28 -3.11 0.24 -3.12 0.2 -3.11 0.18 -3.11 0.12 -3.12 0.1 -3.13 0.06 -3.12c0.84,-66.54 -23.74,-133.42 -73.89,-184.85 -20.54,-21.05 -43.81,-37.89 -68.75,-50.5 -19.28,-9.74 -39.55,-16.94 -60.28,-21.6l361.55 -352.63z"/>
   </g>
   <g>
    <path class="fil2" d="M644.33 629.49l-0.3 -41.15c18.68,-1.43 43.21,-4.65 43.73,19.65 0.57,26.13 -22.95,23.1 -43.44,21.51zm-45.72 96.58l45.41 0 0 -63.57c26.18,0 29.75,-2.27 44.2,26.64 5,9.99 15.18,27.13 17.56,36.93l48.89 -0.04c-7.46,-14.43 -14.51,-29.27 -21.64,-43.55 -12.24,-24.5 -13.01,-23.5 -29.37,-36.33 11.19,-8.78 29.37,-13.2 29.37,-45.41 0,-11.54 -5.21,-25.7 -14.19,-33.04 -8.53,-6.97 -25.74,-12.38 -36.67,-12.38l-83.55 0 0 170.74z"/>
    <g>
     <path class="fil3" d="M852.96 643.68l-41.19 0 0 0 -0.18 -7.37 -0.55 -7.26 -0.9 -7.14 -1.24 -7.02 -1.58 -6.9 -1.9 -6.77 -2.22 -6.62 -2.52 -6.48 -2.82 -6.31 -3.12 -6.14 -3.4 -5.97 -3.67 -5.79 -3.93 -5.59 -4.19 -5.39 -4.44 -5.18 -4.67 -4.95 -4.91 -4.73 -5.12 -4.49 -5.33 -4.23 -5.53 -3.98 -5.72 -3.71 -5.9 -3.43 -6.07 -3.14 -6.24 -2.85 -6.4 -2.55 -6.53 -2.24 -6.68 -1.92 -6.81 -1.59 -6.93 -1.25 -7.05 -0.9 -7.16 -0.55 -7.27 -0.19 0 -41.36 9.36 0.24 9.25 0.71 9.12 1.17 8.99 1.62 8.82 2.06 8.66 2.48 8.48 2.9 8.28 3.3 8.07 3.69 7.86 4.07 7.63 4.44 7.4 4.79 7.14 5.13 6.87 5.46 6.6 5.78 6.32 6.09 6.03 6.38 5.72 6.68 5.4 6.95 5.07 7.21 4.73 7.46 4.38 7.7 4.02 7.94 3.65 8.15 3.26 8.36 2.86 8.55 2.46 8.74 2.03 8.9 1.6 9.06 1.15 9.2 0.7 9.32 0.24 9.44 0 0zm0 0c0,11.42 -9.22,20.68 -20.59,20.68 -11.37,0 -20.59,-9.26 -20.59,-20.68l41.19 0zm-182.17 183.97l0 -41.36 0 0 7.27 -0.19 7.16 -0.55 7.05 -0.9 6.93 -1.25 6.81 -1.59 6.68 -1.92 6.53 -2.24 6.4 -2.55 6.24 -2.85 6.07 -3.14 5.9 -3.43 5.72 -3.71 5.52 -3.97 5.33 -4.23 5.12 -4.49 4.9 -4.72 4.67 -4.96 4.44 -5.17 4.19 -5.39 3.94 -5.6 3.67 -5.78 3.4 -5.97 3.12 -6.15 2.82 -6.31 2.52 -6.48 2.22 -6.62 1.9 -6.76 1.58 -6.9 1.24 -7.02 0.9 -7.14 0.55 -7.26 0.18 -7.37 41.19 0 -0.24 9.44 -0.7 9.32 -1.15 9.2 -1.6 9.06 -2.03 8.9 -2.46 8.74 -2.86 8.55 -3.26 8.36 -3.65 8.15 -4.02 7.93 -4.38 7.7 -4.73 7.46 -5.07 7.21 -5.4 6.95 -5.72 6.67 -6.03 6.39 -6.32 6.09 -6.6 5.77 -6.87 5.47 -7.14 5.13 -7.39 4.79 -7.63 4.44 -7.86 4.07 -8.07 3.69 -8.28 3.3 -8.48 2.9 -8.66 2.48 -8.82 2.06 -8.99 1.62 -9.12 1.17 -9.25 0.71 -9.36 0.24 0 0zm0 0c-11.37,0 -20.59,-9.26 -20.59,-20.68 0,-11.42 9.22,-20.68 20.59,-20.68l0 41.36zm-182.17 -183.97l41.19 0 0 0 0.18 7.37 0.55 7.26 0.9 7.14 1.24 7.02 1.58 6.9 1.9 6.76 2.22 6.62 2.52 6.48 2.82 6.31 3.12 6.15 3.4 5.97 3.67 5.78 3.94 5.6 4.18 5.39 4.44 5.18 4.67 4.96 4.9 4.72 5.12 4.49 5.33 4.23 5.53 3.97 5.72 3.71 5.9 3.43 6.06 3.14 6.24 2.85 6.39 2.55 6.53 2.23 6.68 1.92 6.81 1.59 6.93 1.25 7.05 0.9 7.16 0.55 7.27 0.19 0 41.36 -9.36 -0.24 -9.25 -0.71 -9.12 -1.17 -8.99 -1.62 -8.83 -2.06 -8.66 -2.48 -8.48 -2.9 -8.28 -3.3 -8.08 -3.69 -7.86 -4.07 -7.63 -4.44 -7.39 -4.78 -7.15 -5.13 -6.88 -5.47 -6.6 -5.77 -6.33 -6.1 -6.02 -6.38 -5.72 -6.67 -5.41 -6.95 -5.07 -7.21 -4.73 -7.46 -4.38 -7.7 -4.02 -7.93 -3.65 -8.15 -3.26 -8.36 -2.86 -8.55 -2.46 -8.74 -2.03 -8.9 -1.6 -9.06 -1.15 -9.2 -0.7 -9.32 -0.24 -9.44 0 0zm0 0c0,-11.42 9.22,-20.68 20.59,-20.68 11.37,0 20.59,9.26 20.59,20.68l-41.19 0zm182.17 -183.97l0 41.36 0 0 -7.27 0.19 -7.16 0.55 -7.05 0.9 -6.93 1.25 -6.81 1.59 -6.68 1.92 -6.53 2.23 -6.39 2.55 -6.24 2.85 -6.06 3.14 -5.9 3.43 -5.72 3.71 -5.53 3.98 -5.33 4.23 -5.12 4.49 -4.91 4.73 -4.67 4.95 -4.44 5.18 -4.19 5.38 -3.93 5.59 -3.67 5.79 -3.4 5.97 -3.12 6.14 -2.82 6.31 -2.52 6.48 -2.22 6.62 -1.9 6.77 -1.58 6.9 -1.24 7.02 -0.9 7.14 -0.55 7.26 -0.18 7.37 -41.19 0 0.24 -9.44 0.7 -9.32 1.15 -9.2 1.6 -9.06 2.03 -8.9 2.46 -8.74 2.86 -8.55 3.26 -8.36 3.65 -8.15 4.02 -7.94 4.38 -7.7 4.73 -7.46 5.07 -7.21 5.4 -6.95 5.72 -6.67 6.02 -6.38 6.32 -6.09 6.6 -5.78 6.88 -5.46 7.14 -5.13 7.39 -4.79 7.63 -4.44 7.86 -4.07 8.08 -3.69 8.28 -3.3 8.48 -2.9 8.66 -2.48 8.83 -2.06 8.99 -1.62 9.12 -1.17 9.25 -0.71 9.36 -0.24 0 0zm0 0c11.37,0 20.59,9.26 20.59,20.68 0,11.42 -9.22,20.68 -20.59,20.68l0 -41.36z"/>
    </g>
   </g>
   <g>
    <polygon class="fil3" points="1241.62,1353.76 1169.09,1353.76 1175.12,1000.9 1247.67,1000.9 1247.67,1000.9 "/>
    <path class="fil3" d="M1493.77 1353.76l-72.56 0 2.57 -149.48 -53.84 21.85 -0 0 -2.18 127.63 -0 0 -72.54 0 5.22 -304.72 0 0 0.01 -0.71 0 0 0.02 -0.71 0 0 0.03 -0.7 0 0 0.04 -0.69 0.04 -0.69 0 0 0.05 -0.69 0 0 0.06 -0.68 0.06 -0.67 0 0 0.08 -0.67 0.08 -0.66 0 0 0.09 -0.66 0 0 0.09 -0.66 0.11 -0.65 0 0 0.11 -0.65 0.12 -0.64 0 0 0.12 -0.63 0.13 -0.63 0 0 0.14 -0.63 0.15 -0.62 0.15 -0.61 0 0 0.16 -0.61 0.17 -0.61 0.18 -0.6 0 0 0.18 -0.6 0.19 -0.6 0.2 -0.58 0.21 -0.58 0.21 -0.58 0 0 0.22 -0.57 0.23 -0.57 0.24 -0.56 0.24 -0.56 0.25 -0.55 0.26 -0.55 0 0 0.27 -0.54 0.27 -0.54 0.28 -0.54 0.29 -0.53 0.3 -0.52 0.31 -0.52 0.31 -0.51 0.32 -0.51 0.33 -0.5 0.33 -0.5 0.35 -0.49 0.35 -0.49 0.36 -0.48 0.36 -0.48 0.37 -0.48 0.38 -0.47 0.39 -0.46 0.4 -0.46 0.4 -0.45 0.41 -0.45 0.42 -0.45 0.42 -0.44 0.44 -0.43 0.44 -0.43 0.45 -0.42 0.46 -0.42 0.46 -0.42 0.47 -0.41 0.48 -0.41 0.49 -0.4 0.49 -0.39 0.5 -0.39 0.51 -0.38 0.51 -0.37 0.51 -0.37 0.52 -0.36 0.52 -0.35 0 0 0.53 -0.35 0.54 -0.34 0.54 -0.33 0.55 -0.33 0.56 -0.32 0.56 -0.32 0.57 -0.31 0.57 -0.3 0 0 0.58 -0.3 0.58 -0.29 0 0 0.59 -0.29 0.6 -0.28 0.6 -0.28 0.6 -0.27 0 0 0.61 -0.26 0.62 -0.26 0 0 0.63 -0.25 0 0 0.63 -0.24 0 0 0.63 -0.24 0 0 0.64 -0.24 0.65 -0.22 0 0 0.66 -0.22 0.66 -0.21 0.67 -0.21 0.67 -0.2 0 0 0.68 -0.19 0.69 -0.19 0 0 0.69 -0.18 0 0 0.69 -0.18 0 0 0.7 -0.17 0 0 0.71 -0.17 0.71 -0.15 0 0 0.72 -0.15 0 0 0.72 -0.15 0 0 0.73 -0.14 0 0 0.74 -0.13 0 0 0.75 -0.13 0 0 0.75 -0.12 0.75 -0.12 0 0 0.76 -0.11 0.77 -0.1 0 0 0.77 -0.1 0 0 0.78 -0.09 0 0 0.78 -0.08 0 0 0.79 -0.08 0 0 0.79 -0.07 0 0 0.8 -0.06 0 0 0.81 -0.06 0 0 0.81 -0.05 0 0 0.82 -0.05 0 0 0.82 -0.04 0 0 0.83 -0.03 0 0 0.84 -0.03 0 0 0.84 -0.02 0 0 0.85 -0.01 0 0 0.85 -0.01 0 0 0.86 -0 0 0 81.04 0c18.45,0 32.81,4.23 43.15,12.63l0.48 0.4 0.47 0.41 0.47 0.41 0.45 0.42 0.45 0.42 0 0 0.44 0.42 0.44 0.43 0.43 0.43 0 0 0.42 0.44 0.42 0.45 0.4 0.45 0.39 0.45 0.39 0.46 0.38 0.46 0.37 0.47 0 0 0.36 0.48 0 0 0.36 0.48 0 0 0.35 0.48 0.34 0.49 0 0 0.33 0.49 0.33 0.5 0.32 0.5 0.31 0.51 0 0 0.3 0.51 0.29 0.52 0.29 0.52 0.28 0.53 0 0 0.27 0.54 0.26 0.54 0 0 0.25 0.54 0 0 0.25 0.55 0 0 0.24 0.55 0.24 0.56 0 0 0.22 0.56 0 0 0.21 0.57 0 0 0.21 0.57 0.2 0.58 0.19 0.58 0.18 0.58 0.18 0.6 0.17 0.6 0.16 0.6 0 0 0.15 0.61 0.15 0.61 0.14 0.61 0.13 0.62 0.12 0.63 0.12 0.63 0.11 0.63 0 0 0.1 0.64 0.09 0.65 0.09 0.65 0.07 0.66 0.07 0.66 0.06 0.66 0.05 0.67 0.04 0.67 0.04 0.68 0.03 0.69 0.02 0.69 0.02 0.69 0 0.7 0 0.71 -0.01 0.71 -5.21 304.72zm-68.93 -211.51l1.46 -85.43 -53.47 0 -1.82 106.27 53.82 -20.83z"/>
    <path class="fil3" d="M793.29 1297.82l0.87 -49.91 73.68 -29.99 -1.49 87.36c-0.27,15.43 -5.65,27.37 -16.08,35.84 -10.56,8.38 -25.25,12.63 -44.14,12.63l-80.71 0c-18.45,0 -32.71,-4.26 -42.86,-12.63 -10.14,-8.47 -15.03,-20.41 -14.76,-35.76l4.38 -256.33 0.01 -0.71 0.03 -0.71 0.03 -0.7 0 0 0.04 -0.69 0.05 -0.69 0.05 -0.69 0.06 -0.68 0 0 0.06 -0.67 0.08 -0.67 0.08 -0.66 0.09 -0.66 0 0 0.09 -0.66 0.11 -0.65 0.11 -0.65 0 0 0.12 -0.64 0.13 -0.63 0.13 -0.63 0 0 0.14 -0.63 0.15 -0.62 0.15 -0.61 0 0 0.16 -0.61 0.17 -0.61 0.18 -0.6 0 0 0.18 -0.6 0 0 0.19 -0.6 0.2 -0.58 0.21 -0.58 0 0 0.21 -0.58 0 0 0.22 -0.57 0.23 -0.57 0.24 -0.56 0.24 -0.56 0.25 -0.55 0.26 -0.55 0 0 0.27 -0.54 0 0 0.27 -0.54 0 0 0.28 -0.54 0 0 0.29 -0.53 0.3 -0.52 0.31 -0.52 0.31 -0.51 0.32 -0.51 0.33 -0.5 0 0 0.33 -0.5 0.34 -0.49 0.35 -0.49 0 0 0.36 -0.48 0.36 -0.48 0.37 -0.48 0.38 -0.47 0 0 0.39 -0.46 0.39 -0.46 0.4 -0.45 0.41 -0.45 0.42 -0.45 0.42 -0.44 0.43 -0.43 0.44 -0.43 0.45 -0.42 0.45 -0.42 0.46 -0.42 0.47 -0.41 0.48 -0.41 0.48 -0.4c10.45,-8.4 24.85,-12.63 43.3,-12.63l80.71 0 0.87 0 0.87 0.01 0.86 0.01 0.85 0.02 0.85 0.03 0.84 0.03 0.83 0.04 0.83 0.05 0.82 0.05 0.81 0.06 0.81 0.06 0.81 0.07 0.8 0.08 0.79 0.08 0.79 0.09 0.78 0.1 0.78 0.1 0.77 0.11 0.76 0.12 0.75 0.12 0.75 0.13 0.74 0.13 0.73 0.14 0.73 0.15 0.73 0.15 0.72 0.15 0.71 0.17 0.71 0.17 0.7 0.18 0.69 0.18 0.69 0.19 0.68 0.19 0.68 0.2 0.67 0.21 0.66 0.21 0.66 0.22 0.66 0.22 0.64 0.24 0 0 0.64 0.24 0.63 0.24 0 0 0.63 0.25 0.62 0.26 0 0 0.61 0.26 0 0 0.61 0.27 0.6 0.28 0.6 0.28 0.59 0.29 0.58 0.29 0.58 0.3 0.57 0.3 0 0 0.57 0.31 0 0 0.56 0.32 0.55 0.32 0 0 0.55 0.33 0.54 0.33 0 0 0.54 0.34 0 0 0.53 0.35 0.53 0.35 0 0 0.52 0.36 0 0 0.51 0.37 0 0 0.51 0.37 0 0 0.5 0.38 0 0 0.49 0.39 0 0 0.48 0.39 0 0 0.48 0.4 0 0 0.47 0.41 0 0 0.47 0.41 0 0 0.46 0.42 0 0 0.45 0.42 0 0 0.44 0.42 0 0 0.43 0.43 0 0 0.42 0.43 0 0 0.42 0.44 0 0 0.41 0.45 0.4 0.45 0.39 0.45 0 0 0.39 0.46 0.38 0.46 0 0 0.37 0.47 0 0 0.36 0.48 0 0 0.35 0.48 0.35 0.48 0 0 0.34 0.49 0 0 0.33 0.49 0 0 0.32 0.5 0.32 0.5 0.31 0.51 0.3 0.51 0.3 0.52 0.28 0.52 0 0 0.28 0.53 0.27 0.53 0.26 0.54 0.25 0.54 0.25 0.55 0 0 0.24 0.55 0.23 0.56 0.22 0.56 0.21 0.57 0.21 0.57 0.2 0.57 0.19 0.59 0.18 0.59 0.18 0.59 0.17 0.6 0.16 0.6 0 0 0.15 0.61 0.15 0.61 0.14 0.62 0.13 0.62 0 0 0.12 0.63 0 0 0.12 0.63 0.11 0.63 0 0 0.1 0.64 0 0 0.09 0.65 0.08 0.65 0 0 0.08 0.65 0 0 0.07 0.66 0 0 0.06 0.66 0 0 0.05 0.67 0.05 0.67 0 0 0.04 0.68 0 0 0.03 0.69 0 0 0.02 0.69 0 0 0.02 0.69 0 0 0 0.7 0 0.71 0 0 -0.01 0.71 0 0 -0.78 45.93 -73.68 29.32 1.16 -67.55 -52.83 0 -4.13 241 52.82 0z"/>
    <path class="fil3" d="M918.33 1353.76l0 0 6.05 -352.86 139.49 0 0 0 0.86 0 0 0 0.85 0.01 0 0 0.85 0.01 0 0 0.84 0.02 0 0 0.84 0.03 0 0 0.83 0.03 0.82 0.04 0 0 0.82 0.05 0.81 0.05 0 0 0.81 0.06 0.8 0.06 0.8 0.07 0.79 0.08 0 0 0.78 0.08 0.78 0.09 0.77 0.1 0.77 0.1 0.76 0.11 0 0 0.75 0.12 0 0 0.75 0.12 0 0 0.74 0.13 0 0 0.74 0.13 0.73 0.14 0.72 0.15 0 0 0.72 0.15 0.72 0.15 0.71 0.17 0 0 0.7 0.17 0.69 0.18 0.69 0.18 0 0 0.68 0.19 0.68 0.19 0 0 0.67 0.2 0.66 0.21 0 0 0.66 0.21 0.66 0.22 0.64 0.22 0.64 0.24 0.63 0.24 0.63 0.24 0 0 0.63 0.25 0.62 0.26 0.61 0.26 0.61 0.27 0.6 0.28 0.6 0.28 0.58 0.29 0.58 0.29 0.58 0.3 0.57 0.3 0.57 0.31 0.56 0.32 0.55 0.32 0.54 0.33 0.54 0.33 0.54 0.34 0.53 0.35 0.53 0.35 0.52 0.36 0.51 0.37 0.51 0.37 0.5 0.38 0.49 0.39 0.49 0.39c10.36,8.47 15.36,20.34 15.1,35.51l-2.16 126.7 -53.96 21.85 80.06 156.18 -75.84 0 -66.27 -130.59 -10.91 4.5 -2.16 126.08 -72.56 0zm129.61 -210.49l1.48 -86.45 -53.45 0 -1.85 107.8 53.81 -21.35z"/>
   </g>
  </g>
 </g>
</svg>
